<svg width="87" height="87" viewBox="0 0 87 87" fill="none" xmlns="http://www.w3.org/2000/svg">
<g id="event-svgrepo-com 1">
<path id="Vector" fill-rule="evenodd" clip-rule="evenodd" d="M25.375 7.25C24.4136 7.25 23.4916 7.63192 22.8117 8.31174C22.1319 8.99156 21.75 9.91359 21.75 10.875V14.5036C18.2664 14.5544 16.8925 14.9713 15.5114 15.7108C14.0519 16.4834 12.8584 17.6769 12.0858 19.1364C11.2955 20.6117 10.875 22.0763 10.875 26.1181V64.5069C10.875 68.5451 11.2955 70.0133 12.0858 71.4886C12.876 72.964 14.036 74.124 15.5114 74.9143C16.9867 75.7045 18.4512 76.125 22.4931 76.125H64.5069C68.5451 76.125 70.0133 75.7045 71.4886 74.9143C72.964 74.124 74.124 72.964 74.9143 71.4886C75.7045 70.0133 76.125 68.5488 76.125 64.5069V26.1181C76.125 22.0763 75.7045 20.6117 74.9143 19.1364C74.1416 17.6769 72.9481 16.4834 71.4886 15.7108C70.1075 14.9713 68.7336 14.5544 65.25 14.5V10.875C65.25 9.91359 64.8681 8.99156 64.1883 8.31174C63.5084 7.63192 62.5864 7.25 61.625 7.25C60.6636 7.25 59.7416 7.63192 59.0617 8.31174C58.3819 8.99156 58 9.91359 58 10.875V14.5H29V10.875C29 9.91359 28.6181 8.99156 27.9383 8.31174C27.2584 7.63192 26.3364 7.25 25.375 7.25ZM18.125 32.625V64.5069C18.125 66.0547 18.1939 67.0226 18.3026 67.5845C18.3461 67.802 18.3643 67.8527 18.4803 68.0703C18.5764 68.2665 18.7343 68.4257 18.9298 68.5234C19.1473 68.6357 19.1944 68.6539 19.4155 68.6974C19.9774 68.8061 20.9452 68.875 22.4931 68.875H64.5069C66.0547 68.875 67.0226 68.8061 67.5845 68.6974C67.7568 68.6718 67.9221 68.6114 68.0703 68.5198C68.2665 68.4236 68.4257 68.2657 68.5234 68.0703C68.6138 67.9218 68.673 67.7565 68.6974 67.5845C68.8061 67.0226 68.875 66.0547 68.875 64.5069L68.8895 32.625H18.125ZM49.8438 47.125C49.1227 47.125 48.4312 47.4114 47.9213 47.9213C47.4114 48.4312 47.125 49.1227 47.125 49.8438V58.9062C47.125 60.407 48.343 61.625 49.8438 61.625H58.9062C59.6273 61.625 60.3188 61.3386 60.8287 60.8287C61.3386 60.3188 61.625 59.6273 61.625 58.9062V49.8438C61.625 49.1227 61.3386 48.4312 60.8287 47.9213C60.3188 47.4114 59.6273 47.125 58.9062 47.125H49.8438Z" fill="#E45F15"/>
</g>
</svg>
