<svg width="80" height="80" viewBox="0 0 80 80" fill="none" xmlns="http://www.w3.org/2000/svg">
<g id="community-svgrepo-com 1" clip-path="url(#clip0_156_101)">
<g id="Group">
<g id="Group_2">
<g id="Group_3">
<path id="Vector" d="M39.8528 23.9123C45.012 23.9123 49.1944 19.7299 49.1944 14.5707C49.1944 9.41149 45.012 5.22913 39.8528 5.22913C34.6936 5.22913 30.5112 9.41149 30.5112 14.5707C30.5112 19.7299 34.6936 23.9123 39.8528 23.9123Z" fill="#E45F15"/>
<path id="Vector_2" d="M72.5538 40.2711L63.8474 38.455C60.8812 37.8336 57.9527 39.1931 56.4044 41.6101C54.9007 40.8377 53.2837 40.1716 51.5637 39.6189V34.4417C51.5672 30.5245 48.3605 27.3213 44.4571 27.3213H35.555C31.631 27.3213 28.4381 30.5245 28.4381 34.4417V39.6463C26.7353 40.1887 25.1355 40.8547 23.6214 41.6306C22.0731 39.2033 19.1411 37.8336 16.1714 38.455L7.45804 40.2711C3.63349 41.071 1.15128 44.8647 1.9512 48.7029L4.13818 59.15C4.93126 62.9779 8.72827 65.4601 12.5563 64.6602L15.3131 64.0834C16.6931 66.1227 18.6021 67.9937 21.0464 69.5936C26.1377 72.9306 32.8633 74.7708 40.0007 74.7708C50.9216 74.7708 60.3284 70.3798 64.661 64.0731L67.4625 64.6602C71.287 65.4566 75.0841 62.9779 75.8771 59.15L78.0675 48.7029C78.8639 44.8647 76.3817 41.071 72.5538 40.2711ZM39.9972 71.2038C33.5498 71.2038 27.5074 69.5799 22.9997 66.6102C21.4548 65.6008 20.1742 64.4783 19.1478 63.2766L21.2592 62.8337C25.0906 62.0373 27.5728 58.2436 26.7729 54.4122L24.8125 45.0191C25.9558 44.4046 27.1574 43.8655 28.4345 43.4055V45.1187C28.4345 49.029 31.6342 52.2322 35.5513 52.2322H44.4535C48.3605 52.2322 51.5602 49.0257 51.5602 45.1187V43.3163C52.8613 43.7797 54.0834 44.3119 55.2165 44.9161L53.2286 54.4157C52.4355 58.2471 54.9142 62.0408 58.7456 62.8372L60.8775 63.2835C56.9021 67.9904 49.0367 71.2038 39.9972 71.2038Z" fill="#E45F15"/>
<path id="Vector_3" d="M70.6585 36.1927C75.8177 36.1927 80 32.0103 80 26.8511C80 21.6919 75.8177 17.5095 70.6585 17.5095C65.4993 17.5095 61.3169 21.6919 61.3169 26.8511C61.3169 32.0103 65.4993 36.1927 70.6585 36.1927Z" fill="#E45F15"/>
<path id="Vector_4" d="M11.2582 35.9969C16.3118 34.9395 19.539 29.9855 18.4953 24.9353C17.431 19.8886 12.4873 16.6477 7.4302 17.7051C2.38349 18.7591 -0.857428 23.7097 0.200012 28.7599C1.25411 33.8134 6.20469 37.051 11.2582 35.9969Z" fill="#E45F15"/>
</g>
</g>
</g>
</g>
<defs>
<clipPath id="clip0_156_101">
<rect width="80" height="80" fill="white"/>
</clipPath>
</defs>
</svg>
