<svg width="78" height="78" viewBox="0 0 78 78" fill="none" xmlns="http://www.w3.org/2000/svg">
<g id="exclusive-rate-stars-svgrepo-com 1" clip-path="url(#clip0_156_127)">
<g id="stars">
<path id="Vector" d="M29.6156 35.3193C28.8324 35.3272 28.0604 35.1341 27.3731 34.7587L21.9374 31.8825L16.4043 34.7587C15.6082 35.149 14.7207 35.3147 13.8374 35.2381C12.954 35.1615 12.1083 34.8454 11.3913 34.3239C10.6742 33.8024 10.113 33.0952 9.76792 32.2785C9.42287 31.4617 9.3071 30.5664 9.43307 29.6887L10.4568 23.595L6.04495 19.2806C5.42303 18.6452 4.98672 17.8519 4.78322 16.9864C4.57973 16.1209 4.61679 15.2162 4.8904 14.3703C5.16401 13.5244 5.66375 12.7694 6.33555 12.187C7.00735 11.6046 7.82562 11.217 8.70182 11.0662L14.8199 10.1887L17.5743 4.63121C17.9813 3.82356 18.6049 3.14504 19.3755 2.67152C20.146 2.19801 21.033 1.94818 21.9374 1.94996C22.8335 1.95717 23.7103 2.21124 24.4715 2.68425C25.2326 3.15727 25.8486 3.83092 26.2518 4.63121L28.9818 10.1887L35.1243 11.0662C36.0005 11.217 36.8188 11.6046 37.4906 12.187C38.1624 12.7694 38.6621 13.5244 38.9357 14.3703C39.2094 15.2162 39.2464 16.1209 39.0429 16.9864C38.8394 17.8519 38.4031 18.6452 37.7812 19.2806L33.2962 23.595L34.3443 29.6887C34.5046 30.5748 34.4085 31.4883 34.0674 32.3216C33.7263 33.155 33.1543 33.8737 32.4187 34.3931C31.6112 35.001 30.6263 35.3264 29.6156 35.3193ZM21.9374 6.77621L18.0618 14.625L9.40869 15.8925L15.6974 21.9375L14.2349 30.5662L21.9374 26.3737L29.6887 30.4443L28.0556 21.9375L34.3199 15.8193L25.6912 14.625L21.9374 6.77621Z" fill="#E45F15"/>
<path id="Vector_2" d="M29.6157 74.2707C28.8341 74.2663 28.065 74.074 27.3732 73.7101L21.9376 70.8095L16.4045 73.7101C15.6083 74.1003 14.7209 74.2661 13.8375 74.1894C12.9542 74.1128 12.1085 73.7968 11.3914 73.2753C10.6744 72.7538 10.1131 72.0466 9.76808 71.2299C9.42304 70.4131 9.30727 69.5177 9.43323 68.6401L10.457 62.522L6.04511 58.2076C5.40191 57.5933 4.94602 56.8093 4.7303 55.9464C4.51459 55.0836 4.5479 54.1773 4.82636 53.3326C5.10708 52.4806 5.61744 51.7226 6.30123 51.142C6.98503 50.5614 7.81577 50.1808 8.70198 50.042L14.8201 49.1645L17.5745 43.607C17.9747 42.7902 18.5954 42.1017 19.3664 41.6192C20.1375 41.1368 21.0281 40.8797 21.9376 40.877C22.8337 40.8842 23.7105 41.1382 24.4716 41.6112C25.2327 42.0843 25.8488 42.7579 26.252 43.5582L28.982 49.1157L35.1245 49.9932C36.0007 50.144 36.819 50.5316 37.4908 51.114C38.1626 51.6963 38.6623 52.4514 38.9359 53.2973C39.2095 54.1432 39.2466 55.0479 39.0431 55.9134C38.8396 56.7789 38.4033 57.5722 37.7814 58.2076L33.3451 62.522L34.3932 68.6401C34.5014 69.3284 34.4606 70.032 34.2739 70.7033C34.0871 71.3746 33.7585 71.9981 33.3104 72.5317C32.8623 73.0653 32.305 73.4966 31.676 73.7966C31.0471 74.0966 30.3612 74.2582 29.6645 74.2707H29.6157ZM21.9376 45.7032L18.062 53.6251L9.40886 54.8682L15.6976 60.9376L14.2351 69.5907L21.9376 65.3007L29.6889 69.3957L28.0557 60.9376L34.3201 54.8438L25.6914 53.6251L21.9376 45.7032Z" fill="#E45F15"/>
<path id="Vector_3" d="M58.1343 27.3244L61.4493 34.125L68.7618 35.1975C69.1871 35.2817 69.5822 35.4778 69.9065 35.7655C70.2308 36.0533 70.4724 36.4223 70.6065 36.8346C70.7407 37.2469 70.7624 37.6875 70.6695 38.111C70.5766 38.5345 70.3724 38.9255 70.078 39.2438L64.813 44.3625L66.0805 51.675C66.1212 52.1029 66.0479 52.534 65.8682 52.9245C65.6886 53.3149 65.4088 53.651 65.0574 53.8984C64.706 54.1459 64.2953 54.2961 63.8671 54.3337C63.439 54.3713 63.0084 54.295 62.6193 54.1125L56.0624 50.7488L49.4324 54.2344C49.0442 54.411 48.6165 54.4826 48.192 54.4422C47.7674 54.4017 47.3609 54.2506 47.0131 54.0039C46.6652 53.7572 46.3882 53.4235 46.2096 53.0362C46.0311 52.649 45.9572 52.2216 45.9955 51.7969L47.263 44.4844L41.9249 39.2682C41.6306 38.9515 41.4259 38.5623 41.3316 38.1405C41.2374 37.7186 41.257 37.2793 41.3884 36.8675C41.5199 36.4557 41.7585 36.0863 42.0798 35.7972C42.4011 35.508 42.7935 35.3094 43.2168 35.2219L50.5293 34.1494L53.8443 27.4463C54.0419 27.0531 54.3423 26.7208 54.7135 26.4846C55.0848 26.2483 55.513 26.117 55.9529 26.1045C56.3927 26.092 56.8278 26.1988 57.2118 26.4136C57.5959 26.6284 57.9146 26.9431 58.1343 27.3244Z" fill="#E45F15"/>
<path id="Vector_4" d="M48.2866 56.9399C47.2759 56.9476 46.2878 56.6409 45.4591 56.0624C44.7408 55.5283 44.1835 54.8069 43.8481 53.9771C43.5128 53.1473 43.4123 52.2411 43.5578 51.358L44.6059 45.2643L40.1697 40.9255C39.5545 40.2895 39.124 39.498 38.9245 38.6359C38.7249 37.7739 38.7637 36.8737 39.0367 36.032C39.3098 35.1903 39.8068 34.4388 40.4744 33.8581C41.142 33.2774 41.9552 32.8893 42.8266 32.7355L48.9691 31.6874L51.6991 26.1299C52.1126 25.3438 52.7331 24.6856 53.4935 24.2265C54.2538 23.7673 55.1252 23.5247 56.0134 23.5247C56.9017 23.5247 57.773 23.7673 58.5334 24.2265C59.2938 24.6856 59.9143 25.3438 60.3278 26.1299L63.0578 31.6874L69.2003 32.5893C70.104 32.7257 70.9511 33.1135 71.645 33.7082C72.3389 34.303 72.8516 35.0809 73.1247 35.953C73.3833 36.7997 73.4065 37.7008 73.1918 38.5597C72.9771 39.4185 72.5326 40.2027 71.9059 40.828L67.4697 45.1668L68.5178 51.2605C68.6771 52.1633 68.5787 53.0927 68.2338 53.9421C67.8889 54.7914 67.3115 55.5263 66.5678 56.0624C65.8381 56.5838 64.9787 56.8938 64.0842 56.9583C63.1897 57.0228 62.2948 56.8393 61.4978 56.428L56.0622 53.6249L50.5778 56.5012C49.8608 56.8307 49.0746 56.9812 48.2866 56.9399ZM56.0622 28.3968L52.3084 36.2455L43.6553 37.513L49.9684 43.5093L48.4816 52.138L56.0622 47.9943L63.8134 52.0649L62.2291 43.5093L68.5178 37.3912L59.8647 36.2455L56.0622 28.3968Z" fill="#E45F15"/>
</g>
</g>
<defs>
<clipPath id="clip0_156_127">
<rect width="78" height="78" fill="white"/>
</clipPath>
</defs>
</svg>
